<svg width="96" height="127" viewBox="0 0 96 127" fill="none" xmlns="http://www.w3.org/2000/svg">
<rect width="96" height="127" fill="#383838"/>
<rect x="-672" y="-351" width="1920" height="750" fill="#161A2A"/>
<path d="M85.2391 94.2895C89.0131 97.0978 91 100.283 91 103.526C91 106.769 89.0131 109.955 85.2391 112.763C81.4651 115.572 76.0368 117.904 69.5 119.525C62.9632 121.146 55.5481 122 48 122C40.4519 122 33.0368 121.146 26.5 119.525C19.9632 117.904 14.5349 115.572 10.7609 112.763C6.98687 109.955 5 106.769 5 103.526C5 100.284 6.98687 97.0978 10.7609 94.2895M50.4451 102.319C59.5545 97.5827 91 78.9953 91 48.1053C91 24.2989 71.7482 5 48 5C24.2518 5 5 24.2989 5 48.1053C5 78.9953 36.4455 97.5827 45.5549 102.319C47.1082 103.127 48.8918 103.127 50.4451 102.319ZM48 66.5789C58.1778 66.5789 66.4286 58.308 66.4286 48.1053C66.4286 37.9025 58.1778 29.6316 48 29.6316C37.8222 29.6316 29.5714 37.9025 29.5714 48.1053C29.5714 58.308 37.8222 66.5789 48 66.5789Z" stroke="white" stroke-width="10" stroke-linecap="round"/>
</svg>
