<svg width="1919" height="156" viewBox="0 0 1919 156" fill="none" xmlns="http://www.w3.org/2000/svg">
<path fill-rule="evenodd" clip-rule="evenodd" d="M0 0L79.4586 5.86127C160.416 11.7225 319.334 23.4451 479.75 43.2832C640.166 63.5723 799.084 92.4277 959.5 98.289C1119.92 104.15 1278.83 86.5665 1439.25 81.1561C1599.67 75.2948 1758.58 81.1561 1839.54 83.8613L1919 86.5665V156H1839.54C1758.58 156 1599.67 156 1439.25 156C1278.83 156 1119.92 156 959.5 156C799.084 156 640.166 156 479.75 156C319.334 156 160.416 156 79.4586 156H0V0Z" fill="#1ED760"/>
</svg>
