<svg width="146" height="146" viewBox="0 0 146 146" fill="none" xmlns="http://www.w3.org/2000/svg">
<rect width="146" height="146" fill="#383838"/>
<rect x="-1605" y="-342" width="1920" height="750" fill="#161A2A"/>
<path d="M121.667 133.833H109.5V121.667C109.5 111.587 101.329 103.417 91.25 103.417H54.75C44.6708 103.417 36.5 111.587 36.5 121.667V133.833H24.3333V121.667C24.3333 104.868 37.9513 91.2499 54.75 91.2499H91.25C108.048 91.2499 121.667 104.868 121.667 121.667V133.833ZM73 79.0833C52.8416 79.0833 36.5 62.7416 36.5 42.5833C36.5 22.4249 52.8416 6.08325 73 6.08325C93.1583 6.08325 109.5 22.4249 109.5 42.5833C109.5 62.7416 93.1583 79.0833 73 79.0833ZM73 66.9166C86.4387 66.9166 97.3333 56.0222 97.3333 42.5833C97.3333 29.1443 86.4387 18.2499 73 18.2499C59.561 18.2499 48.6666 29.1443 48.6666 42.5833C48.6666 56.0222 59.561 66.9166 73 66.9166Z" fill="#FAFAFF"/>
</svg>
