<svg width="98" height="146" viewBox="0 0 98 146" fill="none" xmlns="http://www.w3.org/2000/svg">
<rect width="98" height="146" fill="#383838"/>
<rect x="-191" y="-342" width="1920" height="750" fill="#161A2A"/>
<path d="M74.3467 7.30605L48.52 3.22415C25.9759 -0.338941 14.7038 -2.12049 7.35192 4.20264C0 10.5258 0 22.002 0 44.9545V65.9625H41.4356L22.5339 42.199L33.4661 33.4028L64.9644 73.0029L33.4661 112.603L22.5339 103.807L41.4356 80.0433H0V101.046C0 123.998 0 135.474 7.35192 141.797C14.7038 148.12 25.9759 146.339 48.52 142.776L74.3467 138.694C85.6358 136.91 91.2803 136.018 94.6402 132.066C98 128.114 98 122.367 98 110.874V35.1263C98 23.6326 98 17.8858 94.6402 13.9341C91.2803 9.98242 85.6358 9.0903 74.3467 7.30605Z" fill="#FAFAFF"/>
</svg>
