<svg width="158" height="124" viewBox="0 0 158 124" fill="none" xmlns="http://www.w3.org/2000/svg">
<rect width="158" height="124" fill="#383838"/>
<rect x="-1121" y="-351" width="1920" height="750" fill="#161A2A"/>
<path d="M111.889 119V21.2857M46.1111 102.714V5M153 10.4123V100.233C153 101.732 152.079 103.079 150.674 103.636L113 118.56C112.278 118.846 111.483 118.899 110.728 118.713L47.2718 103.002C46.5172 102.815 45.7224 102.868 45.0003 103.154L10.0741 116.99C7.64375 117.953 5 116.18 5 113.588V23.7666C5 22.2682 5.92112 20.9208 7.32585 20.3644L45.0003 5.44005C45.7224 5.15397 46.5172 5.10055 47.2718 5.28737L110.728 20.9983C111.483 21.1852 112.278 21.1317 113 20.8457L147.926 7.01007C150.356 6.04729 153 7.81992 153 10.4123Z" stroke="#FAFAFF" stroke-width="10"/>
</svg>
