<svg width="36" height="32" viewBox="0 0 36 32" fill="none" xmlns="http://www.w3.org/2000/svg">
<path d="M16.125 8.57143L33 8.57143M3 23.4286L21.75 23.4286M21.75 23.4286C21.75 26.5056 24.2684 29 27.375 29C30.4816 29 33 26.5056 33 23.4286C33 20.3516 30.4816 17.8571 27.375 17.8571C24.2684 17.8571 21.75 20.3516 21.75 23.4286ZM8.625 14.1429C5.5184 14.1429 3 11.6484 3 8.57143C3 5.49441 5.5184 3 8.625 3C11.7316 3 14.25 5.49441 14.25 8.57143C14.25 11.6484 11.7316 14.1429 8.625 14.1429Z" stroke="#161A2A" stroke-width="5" stroke-linecap="round"/>
</svg>
