<svg width="1920" height="156" viewBox="0 0 1920 156" fill="none" xmlns="http://www.w3.org/2000/svg">
<path fill-rule="evenodd" clip-rule="evenodd" d="M1 0L80.4586 5.86127C161.416 11.7225 320.334 23.4451 480.75 43.2832C641.166 63.5723 800.084 92.4277 960.5 98.289C1120.92 104.15 1279.83 86.5665 1440.25 81.1561C1600.67 75.2948 1759.58 81.1561 1840.54 83.8613L1920 86.5665V156H1840.54C1759.58 156 1600.67 156 1440.25 156C1279.83 156 1120.92 156 960.5 156C800.084 156 641.166 156 480.75 156C320.334 156 161.416 156 80.4586 156H1V0Z" fill="#1ED760"/>
<path fill-rule="evenodd" clip-rule="evenodd" d="M0 89.4L64 98.28C128 107.16 256 124.92 384 120.48C512 116.04 640 89.4 768 71.64C896 53.88 1024 45 1152 45C1280 45 1408 53.88 1536 69.42C1664 84.96 1792 107.16 1856 118.26L1920 129.36V156H1856C1792 156 1664 156 1536 156C1408 156 1280 156 1152 156C1024 156 896 156 768 156C640 156 512 156 384 156C256 156 128 156 64 156H0V89.4Z" fill="#FAFAFF"/>
</svg>
