<svg width="25" height="29" viewBox="0 0 25 29" fill="none" xmlns="http://www.w3.org/2000/svg">
<path d="M19.6907 7.25C19.6907 11.2541 16.4713 14.5 12.5 14.5C8.52867 14.5 5.30927 11.2541 5.30927 7.25C5.30927 3.24594 8.52867 0 12.5 0C16.4713 0 19.6907 3.24594 19.6907 7.25Z" fill="#161A2A"/>
<path d="M0.523628 24.1435C1.71204 19.0799 6.69659 16.3125 11.8575 16.3125H13.1425C18.3034 16.3125 23.288 19.0799 24.4764 24.1435C24.7063 25.1233 24.8891 26.1486 24.9919 27.1905C25.0902 28.1866 24.2789 29 23.2861 29H1.7139C0.72107 29 -0.0902192 28.1866 0.0080873 27.1905C0.110915 26.1486 0.293676 25.1233 0.523628 24.1435Z" fill="#161A2A"/>
</svg>
